# xmcd
#
# Track frame offsets:
#	150
#	15531
#	28575
#	44106
#	62736
#	75707
#	87913
#	100119
#	118706
#	129536
#
# Disc length: 1928 seconds
# Revision: 0
# Processed by: cddbd v1.5.2PL0 Copyright (c) Steve Scherf et al.
# Submitted via: cdrLabel 7.1
#
DISCID=7e07860a
DTITLE=1966-Tutto Fabrizio de Andr
DYEAR=1966
DGENRE=blues
TTITLE0=La Citt Vecchia
TTITLE1=La Ballata del Mich
TTITLE2=La Guerra di Piero
TTITLE3=Il Testamento
TTITLE4=Ballata Dell'Amore cieco
TTITLE5=Amore Che Vieni, Amore Che Vai
TTITLE6=La Ballata dell'eroe
TTITLE7=La Canzone di Marinella
TTITLE8=Fila La Lana
TTITLE9=Canzone Dell'Amore Perduto
EXTD=
EXTT0=
EXTT1=
EXTT2=
EXTT3=
EXTT4=
EXTT5=
EXTT6=
EXTT7=
EXTT8=
EXTT9=
PLAYORDER=
